<svg width="24" height="17" viewBox="0 0 24 17" fill="none" xmlns="http://www.w3.org/2000/svg">
<path d="M15.6562 8.5L19.5708 12.4146L15.6562 16.3292L11.7416 12.4146L15.6562 8.5Z" fill="#BC4749"/>
<path d="M7.82324 8.49609L11.7361 12.4089L7.82324 16.3218L3.9104 12.4089L7.82324 8.49609Z" fill="#161616"/>
<rect x="11.7473" y="4.58887" width="5.541" height="5.541" transform="rotate(45 11.7473 4.58887)" fill="#BC4749"/>
<rect x="3.91809" y="4.58887" width="5.541" height="5.541" transform="rotate(45 3.91809 4.58887)" fill="#BC4749"/>
<path d="M15.66 0.670898L19.5781 4.58898L15.66 8.50706L11.7419 4.58898L15.66 0.670898Z" fill="white"/>
<path d="M7.83081 0.670898L11.7489 4.58898L7.83081 8.50706L3.91273 4.58898L7.83081 0.670898Z" fill="#BC4749"/>
<rect x="19.5745" y="4.58545" width="5.541" height="5.541" transform="rotate(45 19.5745 4.58545)" fill="#BC4749"/>
<path d="M11.7473 4.58545L15.6653 8.50353L11.7473 12.4216L7.82917 8.50353L11.7473 4.58545Z" fill="#BC4749"/>
</svg>
